<svg xmlns="http://www.w3.org/2000/svg" viewBox="79.5 -151.5 181.241 45.623">
  <defs>
    <style>
      .cls-1 {
        fill: #405265;
        stroke: rgba(0,0,0,0);
      }
    </style>
  </defs>
  <path id="Union_59" data-name="Union 59" class="cls-1" d="M23.706,44.184l-.008,0h0l0-.006a4.523,4.523,0,0,1-2.122-4.643,8.028,8.028,0,0,1,1.385-3.057,21.59,21.59,0,0,0-3.7-3.545,34.507,34.507,0,0,0-7.519-4.113c-.272-.12-.539-.237-.8-.355,0,.037,0,.07,0,.1,0,.229-.029.533-.062.885-.13,1.376-.327,3.457.79,4.758.168-.006.332-.009.49-.009,4.886,0,5.458,2.555,5.837,4.246l.044.2c-6.285-.775-7.253-3.425-7.96-5.361a17.6,17.6,0,0,1-.292-5.336,13.444,13.444,0,0,1-4.855-3.286A6.976,6.976,0,0,1,3.373,19.3a7.777,7.777,0,0,1,3.412-4.746,6.294,6.294,0,0,1-1.853,8.126c1.255,2.028,1.58,2.234,4.921,3.859.024-.455.05-.909.075-1.354.077-1.368.15-2.66.15-3.614-.4-6.493-2.027-9.425-2.806-10.834-.051-.093-.1-.175-.14-.254-.219.011-.44.016-.656.016a7.7,7.7,0,0,1-5.008-1.5A3.858,3.858,0,0,1,0,6.143a5.882,5.882,0,0,1,2.355-.526c2.907,0,4.784,2.555,5.456,3.653.238.014.48.022.72.022,5.288,0,9.616-3.454,11.245-4.755.537-.428,1.008-.853,1.464-1.265s.9-.81,1.381-1.189a6.8,6.8,0,0,0-3.568-.9c-.257,0-.531.01-.815.029l-.083.151c-.57,1.039-1.629,2.974-3.905,2.974a6.7,6.7,0,0,1-3.145-.958c-.012.01-.014.012-.017.012a9.742,9.742,0,0,1,2.15-1.7A11.083,11.083,0,0,1,18.946,0a10,10,0,0,1,3.2.533,10.292,10.292,0,0,1,1.563.788A10.292,10.292,0,0,1,25.269.533,10.009,10.009,0,0,1,28.467,0a11.083,11.083,0,0,1,5.708,1.7,9.742,9.742,0,0,1,2.15,1.7s-.006,0-.017-.012a6.7,6.7,0,0,1-3.145.958c-2.276,0-3.336-1.935-3.905-2.974l-.083-.151c-.284-.019-.558-.029-.815-.029a6.8,6.8,0,0,0-3.569.9c.482.38.927.78,1.382,1.19s.927.836,1.464,1.265c1.629,1.3,5.956,4.755,11.245,4.755.24,0,.482-.007.72-.022.672-1.1,2.549-3.653,5.456-3.653a5.882,5.882,0,0,1,2.355.526A3.858,3.858,0,0,1,45.944,8.99a7.7,7.7,0,0,1-5.008,1.5c-.217,0-.437-.005-.656-.016-.042.078-.088.161-.139.254-.779,1.409-2.4,4.341-2.806,10.834,0,.955.073,2.246.15,3.614.025.445.05.9.075,1.354,3.342-1.625,3.667-1.831,4.921-3.859a6.294,6.294,0,0,1-1.853-8.126A7.777,7.777,0,0,1,44.04,19.3a6.976,6.976,0,0,1-1.559,5.366,13.444,13.444,0,0,1-4.855,3.286,17.6,17.6,0,0,1-.292,5.336c-.707,1.936-1.675,4.586-7.96,5.361l.044-.2c.379-1.691.95-4.246,5.836-4.246.159,0,.323,0,.491.009,1.117-1.3.921-3.382.79-4.758-.033-.352-.062-.655-.062-.886,0-.029,0-.061,0-.1-.264.118-.532.235-.8.355a34.507,34.507,0,0,0-7.519,4.113,21.558,21.558,0,0,0-3.7,3.546,8.035,8.035,0,0,1,1.385,3.056,4.525,4.525,0,0,1-2.122,4.643l0,.006h0Zm0-.009a5.593,5.593,0,0,0,0-6.642A5.6,5.6,0,0,0,23.706,44.175Zm7.323-6.97.148-.024a6.343,6.343,0,0,0,3.709-1.813,2.926,2.926,0,0,0-.515-.039A3.855,3.855,0,0,0,31.029,37.205Zm-18.5-1.837a6.343,6.343,0,0,0,3.708,1.813l.148.024a3.853,3.853,0,0,0-3.341-1.876A2.9,2.9,0,0,0,12.527,35.368ZM10.36,15.344c1.209,3.9.872,9.192.677,11.765,1.082.527,2.383,1.167,4.023,2A26.823,26.823,0,0,1,23.706,35.5a26.84,26.84,0,0,1,8.647-6.392c1.64-.836,2.941-1.476,4.023-2-.2-2.573-.532-7.863.677-11.765.707-2.272,1.678-4.6,1.787-4.865H38.8A18.8,18.8,0,0,1,27.886,6.143c-.708-.56-1.328-1.092-1.874-1.561-.437-.375-.849-.73-1.237-1.038-.38-.288-.733-.547-1.068-.778-.335.231-.688.49-1.067.778-.389.308-.8.662-1.238,1.038-.546.469-1.165,1-1.874,1.561A18.8,18.8,0,0,1,8.61,10.48H8.573C8.682,10.741,9.653,13.073,10.36,15.344ZM41.2,16.516a4.21,4.21,0,0,0,.394,3.626A5.551,5.551,0,0,0,42.812,21.5a5.164,5.164,0,0,0-1.588-5.047ZM4.6,21.5a5.551,5.551,0,0,0,1.214-1.358,4.21,4.21,0,0,0,.394-3.626l-.02-.063A5.164,5.164,0,0,0,4.6,21.5ZM40.91,9.32c.706,0,4.27-.118,5.147-2.453a2.154,2.154,0,0,0-.928-.146A4.983,4.983,0,0,0,40.91,9.32ZM1.356,6.867C2.233,9.2,5.8,9.32,6.5,9.32a4.985,4.985,0,0,0-4.219-2.6A2.154,2.154,0,0,0,1.356,6.867ZM33.275,3.186a4.1,4.1,0,0,0,.832-.088,10.549,10.549,0,0,0-3.191-1.581L30.9,1.511c-.119-.041-.213-.075-.283-.1A2.737,2.737,0,0,0,33.275,3.186ZM16.514,1.511l-.016.005A10.539,10.539,0,0,0,13.307,3.1a4.1,4.1,0,0,0,.832.088A2.737,2.737,0,0,0,16.8,1.41C16.727,1.436,16.633,1.47,16.514,1.511Zm94.843,28.274a3.3,3.3,0,0,1-1.41-1.683l-.256.017a6.125,6.125,0,0,1-4.454-1.759,5.881,5.881,0,0,1-1.8-4.386,5.881,5.881,0,0,1,1.8-4.386,6.517,6.517,0,0,1,8.908,0,5.868,5.868,0,0,1,1.8,4.378,6.027,6.027,0,0,1-3.927,5.746,1.762,1.762,0,0,0,1.463.765,2.607,2.607,0,0,0,1.266-.34,2.416,2.416,0,0,0,.943-.884l1.139,1.581a4.543,4.543,0,0,1-3.383,1.563A3.954,3.954,0,0,1,111.357,29.785Zm-4.649-10.863a4.44,4.44,0,0,0,0,6.1,4.168,4.168,0,0,0,5.967,0,4.438,4.438,0,0,0,0-6.1,4.168,4.168,0,0,0-5.967,0ZM62.3,26.4a5.871,5.871,0,0,1-1.777-4.387,5.925,5.925,0,0,1,1.81-4.42,6.276,6.276,0,0,1,4.573-1.768,5.98,5.98,0,0,1,4.616,2.039l-1.275,1.394a5.553,5.553,0,0,0-1.607-1.139,4.485,4.485,0,0,0-1.777-.323,4.22,4.22,0,0,0-3.026,1.165,3.924,3.924,0,0,0-1.224,2.975,4.1,4.1,0,0,0,1.216,3.026,3.934,3.934,0,0,0,2.881,1.216,4.2,4.2,0,0,0,1.786-.348,6.15,6.15,0,0,0,1.563-1.113l1.292,1.326a5.947,5.947,0,0,1-4.582,2.091A6.141,6.141,0,0,1,62.3,26.4Zm59.135.331a5.288,5.288,0,0,1-1.411-3.953V16.117h2.006V22.7a3.84,3.84,0,0,0,.815,2.584,3.041,3.041,0,0,0,4.42,0,3.836,3.836,0,0,0,.816-2.584V16.117h2.006v6.664a5.291,5.291,0,0,1-1.411,3.953,5.425,5.425,0,0,1-7.241,0Zm-45.152-.374a5.878,5.878,0,0,1-1.8-4.386,5.878,5.878,0,0,1,1.8-4.386,6.516,6.516,0,0,1,8.907,0A5.878,5.878,0,0,1,87,21.974a5.878,5.878,0,0,1-1.8,4.386,6.516,6.516,0,0,1-8.907,0Zm1.471-7.438a4.438,4.438,0,0,0,0,6.1,4.168,4.168,0,0,0,5.967,0,4.44,4.44,0,0,0,0-6.1,4.168,4.168,0,0,0-5.967,0ZM171.69,28V16.117h8.348V18H173.7v3.146h5.7v1.785h-5.7v3.179h6.545V28ZM162.2,28V17.953h-3.6V16.117h9.213v1.836h-3.6V28Zm-11.968,0V17.953h-3.6V16.117h9.214v1.836h-3.6V28Zm-15.3,0V16.117h8.348V18h-6.341v3.146h5.7v1.785h-5.7v3.179h6.545V28ZM90.175,28V26.453L97.095,18v-.05H90.4V16.117h9.486v1.564l-6.9,8.415v.05h7V28Zm-72.34-9.248a6.054,6.054,0,0,1,6.34-6.018,6.775,6.775,0,0,1,4.693,1.972L27.3,16.61a4.308,4.308,0,0,0-3.094-1.547,3.664,3.664,0,0,0,0,7.327A4.591,4.591,0,0,0,27.3,21l1.58,1.717a6.962,6.962,0,0,1-4.811,2.125A6.042,6.042,0,0,1,17.835,18.752Z" transform="translate(80 -151)"/>
</svg>
