<svg xmlns="http://www.w3.org/2000/svg" viewBox="395.458 2567.632 574.464 157.368">
  <defs>
    <style>
      .cls-1 {
        fill: #405265;
        font-size: 24px;
        font-family: Montserrat-Regular, Montserrat;
        letter-spacing: 0.1em;
      }

      .cls-2, .cls-3 {
        fill: #c9c9c9;
      }

      .cls-2 {
        font-size: 37px;
        font-family: Montserrat-SemiBold, Montserrat;
        font-weight: 600;
        letter-spacing: 0.243em;
      }

      .cls-4 {
        fill: none;
        stroke: #c9c9c9;
        stroke-width: 3px;
      }
    </style>
  </defs>
  <g id="Group_167" data-name="Group 167" transform="translate(0 907)">
    <text id="COZQUETTE" class="cls-1" transform="translate(596.78 1812)"><tspan x="0" y="0">COZQUETTE</tspan></text>
    <text id="C" class="cls-2" transform="translate(668.386 1717.007)"><tspan x="0" y="0">C</tspan></text>
    <path id="Subtraction_281" data-name="Subtraction 281" class="cls-3" d="M47.7,69.262h0c5.538-7.943,2.147-16.545-10.365-26.3-5.573-4.339-11.947-7.14-17.571-9.611-6.638-2.917-12.37-5.436-15.92-9.725C.709,19.337-.517,15.118.2,11.089,1.241,5.2,6.121,1.372,8.17,0c3.933,8.423.512,15.747-4.331,18.988C6.877,23.9,7.581,24.238,16.2,28.426c2.878,1.4,6.459,3.137,11.3,5.607C48.786,44.88,52.156,55.423,52.683,58.4A10.568,10.568,0,0,1,47.7,69.262ZM6.778,4.447c-3.62,2.706-4.473,7.874-3.713,11.8A13,13,0,0,0,5.9,13.069a9.844,9.844,0,0,0,.921-8.474l-.047-.148h0Z" transform="translate(635.465 1694.634)"/>
    <path id="Subtraction_284" data-name="Subtraction 284" class="cls-3" d="M42.153,90.309C27.465,88.5,25.2,82.3,23.552,77.78c-1.23-3.37-.763-11.639-.351-18.934.181-3.2.351-6.214.351-8.447-.946-15.174-4.736-22.025-6.557-25.317-.121-.218-.228-.412-.326-.593-.512.025-1.028.037-1.532.037-4.917,0-8.964-1.216-11.7-3.516A9.014,9.014,0,0,1,0,14.356a13.759,13.759,0,0,1,5.5-1.228c6.793,0,11.179,5.97,12.75,8.537.556.033,1.122.05,1.683.05,12.358,0,22.47-8.072,26.277-11.111,1.255-1,2.357-1.995,3.422-2.955,2.691-2.424,5.232-4.713,9.418-6.4A23.377,23.377,0,0,1,66.526,0,25.884,25.884,0,0,1,79.864,3.963a22.762,22.762,0,0,1,5.026,3.962c-.006,0-.015,0-.041-.027A15.661,15.661,0,0,1,77.5,10.136c-5.319,0-7.8-4.521-9.125-6.95l-.194-.354c-.663-.045-1.3-.067-1.9-.067-5.236,0-8.231,1.627-13.372,5.52C52,9,51.032,9.832,50.012,10.709c-1.276,1.1-2.723,2.34-4.379,3.647C33.149,24.2,21.419,24.489,20.122,24.489h-.09c.257.611,2.527,6.061,4.177,11.37,2.969,9.578,1.95,22.737,1.515,28.356-.094,1.214-.162,2.091-.162,2.543,0,.537-.067,1.246-.145,2.068-.3,3.217-.764,8.078,1.847,11.12q.589-.019,1.147-.019c11.417,0,12.753,5.971,13.638,9.922l.1.461h0ZM30.478,82.563a7.021,7.021,0,0,0-1.2.089,14.82,14.82,0,0,0,8.666,4.236l.345.057A9.007,9.007,0,0,0,30.478,82.563ZM5.338,15.708a5.016,5.016,0,0,0-2.169.34c2.05,5.457,10.38,5.733,12.029,5.733C11.8,16.5,7.56,15.708,5.338,15.708ZM71.545,3.3a6.4,6.4,0,0,0,6.216,4.15A9.628,9.628,0,0,0,79.7,7.24c-2.161-1.861-5.739-3.1-7.459-3.7l-.038-.013c-.276-.1-.5-.173-.662-.235Z" transform="translate(627.78 1660.632)"/>
    <path id="Subtraction_285" data-name="Subtraction 285" class="cls-3" d="M47.7,0h0c5.538,7.943,2.147,16.545-10.365,26.3-5.573,4.339-11.947,7.14-17.571,9.611-6.638,2.917-12.37,5.436-15.92,9.725C.709,49.925-.517,54.144.2,58.174,1.241,64.062,6.121,67.89,8.17,69.262c3.933-8.423.512-15.747-4.331-18.988,3.038-4.907,3.742-5.249,12.364-9.437,2.878-1.4,6.459-3.137,11.3-5.607,21.279-10.848,24.65-21.391,25.176-24.364A10.567,10.567,0,0,0,47.7,0ZM6.778,64.815c-3.62-2.706-4.473-7.874-3.713-11.8A13,13,0,0,1,5.9,56.193a9.844,9.844,0,0,1,.921,8.474l-.047.148h0Z" transform="translate(730.894 1763.896) rotate(180)"/>
    <path id="Subtraction_288" data-name="Subtraction 288" class="cls-3" d="M42.153,0C27.465,1.812,25.2,8.006,23.552,12.53c-1.23,3.37-.763,11.639-.351,18.934.181,3.2.351,6.214.351,8.447-.946,15.174-4.736,22.025-6.557,25.317-.121.218-.228.412-.326.593-.512-.025-1.028-.037-1.532-.037-4.917,0-8.964,1.216-11.7,3.516A9.014,9.014,0,0,0,0,75.953a13.759,13.759,0,0,0,5.5,1.228c6.793,0,11.179-5.97,12.75-8.537.556-.033,1.122-.05,1.683-.05,12.358,0,22.47,8.072,26.277,11.111,1.255,1,2.357,1.995,3.422,2.955,2.691,2.424,5.232,4.713,9.418,6.4a23.377,23.377,0,0,0,7.472,1.246,25.884,25.884,0,0,0,13.338-3.963,22.763,22.763,0,0,0,5.026-3.962c-.006,0-.015,0-.041.027A15.661,15.661,0,0,0,77.5,80.174c-5.319,0-7.8,4.521-9.125,6.95l-.194.354c-.663.045-1.3.067-1.9.067-5.236,0-8.231-1.627-13.372-5.52-.909-.72-1.872-1.548-2.892-2.425-1.276-1.1-2.723-2.34-4.379-3.647C33.149,66.1,21.419,65.82,20.122,65.82h-.09c.257-.611,2.527-6.061,4.177-11.37,2.969-9.578,1.95-22.737,1.515-28.356-.094-1.214-.162-2.091-.162-2.543,0-.537-.067-1.246-.145-2.068-.3-3.217-.764-8.078,1.847-11.12q.589.019,1.147.019c11.417,0,12.753-5.971,13.638-9.922l.1-.461h0ZM30.478,7.747a7.021,7.021,0,0,1-1.2-.089,14.82,14.82,0,0,1,8.666-4.236l.345-.057A9.007,9.007,0,0,1,30.478,7.747ZM5.338,74.6a5.016,5.016,0,0,1-2.169-.34c2.05-5.457,10.38-5.733,12.029-5.733C11.8,73.813,7.56,74.6,5.338,74.6ZM71.545,87.014a6.4,6.4,0,0,1,6.216-4.15,9.627,9.627,0,0,1,1.944.205c-2.161,1.861-5.739,3.1-7.459,3.7l-.038.013c-.276.1-.5.173-.662.235Z" transform="translate(738.579 1750.942) rotate(180)"/>
    <path id="Path_627" data-name="Path 627" class="cls-4" d="M961.1,2651.713c-2.9-15.2,16.5-19.142,16.5-19.142s-.538,23.6-41.839,24.443-110.088-21.885-144.974-24.443-40.087,18.042-42.987,24.443c-1,4-2.2,11.4-8,13.4-6.3,3-10.5-8.2-1-9.4" transform="translate(-9.22 -931.713)"/>
    <path id="Path_628" data-name="Path 628" class="cls-4" d="M753.1,2623s13.7-12.1,36.1-4.7,18.6,25.6,7.9,29.3-18.7-6.4-10.1-14.9" transform="translate(-0.22 -908)"/>
    <path id="Path_629" data-name="Path 629" class="cls-4" d="M823.1,2608.687s54.5,14.813,73.3,12.813,18.6-15.4,18.6-15.4-11,1.2-11.3,12.6" transform="translate(-0.22 -908)"/>
    <path id="Path_630" data-name="Path 630" class="cls-4" d="M888.675,2631.027s-1.639,11.329,7.382,10.083c-1.662-9.852-9.1-16.722-27-18.051s-33.665.708-38.992,6-1.049,12.521,4.03,9.58,5.123-11.611-4.859-16.33S806.5,2620.1,806.5,2620.1" transform="translate(326.87 -983.818) rotate(7)"/>
    <path id="Path_631" data-name="Path 631" class="cls-4" d="M779.355,2601.5s5.545-11.5,24.745-11.9c-3.3,7.8-9.1,10.7-18.1,8.6" transform="matrix(0.966, 0.259, -0.259, 0.966, 712.535, -1018.473)"/>
    <path id="Path_632" data-name="Path 632" class="cls-4" d="M779.355,2601.175s5.393-11.185,24.068-11.575c-3.21,7.587-8.851,10.407-17.605,8.365" transform="translate(616.218 -983.437) rotate(14)"/>
    <path id="Path_633" data-name="Path 633" class="cls-4" d="M779.355,2598.6s4.191-8.692,18.7-9c-2.495,5.9-6.879,8.088-13.682,6.5" transform="matrix(0.883, -0.469, 0.469, 0.883, -1166.786, -231.468)"/>
    <path id="Path_634" data-name="Path 634" class="cls-4" d="M734.94,2627.46s2.521-17,28.96-25.56c13.566-4.192,8.3-19.7,0-16.5-5.9,2.5-2.4,10.3,1.7,9.1" transform="matrix(0.978, 0.208, -0.208, 0.978, 565.979, -1011.546)"/>
    <path id="Path_635" data-name="Path 635" class="cls-4" d="M749.72,2651.713c2.9-15.2-16.5-19.142-16.5-19.142s.538,23.6,41.839,24.443,110.088-21.885,144.974-24.443,40.087,18.042,42.987,24.443c1,4,2.2,11.4,8,13.4,6.3,3,10.5-8.2,1-9.4" transform="translate(-336.22 -931.713)"/>
    <path id="Path_636" data-name="Path 636" class="cls-4" d="M805.611,2623s-13.7-12.1-36.1-4.7-18.6,25.6-7.9,29.3,18.7-6.4,10.1-14.9" transform="translate(-193.111 -908)"/>
    <path id="Path_637" data-name="Path 637" class="cls-4" d="M915,2608.687s-54.5,14.813-73.3,12.813-18.6-15.4-18.6-15.4,11,1.2,11.3,12.6" transform="translate(-372.5 -908)"/>
    <path id="Path_638" data-name="Path 638" class="cls-4" d="M82.175,10.178S80.536-1.151,89.557.1c-1.662,9.852-9.1,16.722-27,18.051s-33.665-.708-38.992-6S22.516-.371,27.6,2.57s5.123,11.611-4.859,16.33S0,21.1,0,21.1" transform="translate(559.903 1735.988) rotate(173)"/>
    <path id="Path_639" data-name="Path 639" class="cls-4" d="M0,0S5.545,11.5,24.745,11.9c-3.3-7.8-9.1-10.7-18.1-8.6" transform="matrix(-0.966, 0.259, -0.259, -0.966, 573.363, 1696.095)"/>
    <path id="Path_640" data-name="Path 640" class="cls-4" d="M0,0S5.393,11.185,24.068,11.575C20.858,3.988,15.217,1.167,6.463,3.21" transform="translate(622.238 1729.015) rotate(166)"/>
    <path id="Path_641" data-name="Path 641" class="cls-4" d="M0,0S4.191,8.692,18.7,9C16.21,3.1,11.826.907,5.023,2.495" transform="matrix(-0.883, -0.469, 0.469, -0.883, 624.07, 1697.07)"/>
    <path id="Path_642" data-name="Path 642" class="cls-4" d="M0,0S2.521,17,28.96,25.56c13.566,4.192,8.3,19.7,0,16.5-5.9-2.5-2.4-10.3,1.7-9.1" transform="matrix(-0.978, 0.208, -0.208, -0.978, 626.8, 1711.3)"/>
  </g>
</svg>
